 <svg
        width="1376"
        height="245"
        viewBox="0 0 1376 245"
        fill="none"
        xmlns="http://www.w3.org/2000/svg"
      >
        <g clip-path="url(#clip0_1_78)">
          <path
            d="M0 0H33.5982V158.6H235.188V0H268.786V359.9H235.188V189.1H33.5982V359.9H0V0Z"
            fill="#1A1A1A"
          />
          <path
            d="M345.654 242.475C345.654 224.514 348.709 207.993 354.818 192.912C360.926 177.832 369.411 164.785 380.271 153.771C391.131 142.757 404.197 134.2 419.469 128.1C434.741 122 451.37 118.95 469.357 118.95C487.344 118.95 503.888 122 518.991 128.1C534.093 134.2 547.159 142.757 558.189 153.771C569.218 164.785 577.788 177.832 583.896 192.912C590.005 207.993 593.06 224.514 593.06 242.475C593.06 260.436 590.005 276.957 583.896 292.037C577.788 307.118 569.218 320.165 558.189 331.179C547.159 342.193 534.093 350.75 518.991 356.85C503.888 362.95 487.344 366 469.357 366C451.37 366 434.741 362.95 419.469 356.85C404.197 350.75 391.131 342.193 380.271 331.179C369.411 320.165 360.926 307.118 354.818 292.037C348.709 276.957 345.654 260.436 345.654 242.475ZM376.198 242.475C376.198 255.692 378.319 268.146 382.562 279.837C386.804 291.529 392.997 301.696 401.142 310.337C409.287 318.979 419.129 325.842 430.668 330.925C442.207 336.008 455.103 338.55 469.357 338.55C483.611 338.55 496.507 336.008 508.046 330.925C519.585 325.842 529.427 318.979 537.572 310.337C545.717 301.696 551.91 291.529 556.152 279.837C560.395 268.146 562.516 255.692 562.516 242.475C562.516 229.258 560.395 216.804 556.152 205.112C551.91 193.421 545.717 183.254 537.572 174.612C529.427 165.971 519.585 159.108 508.046 154.025C496.507 148.942 483.611 146.4 469.357 146.4C455.103 146.4 442.207 148.942 430.668 154.025C419.129 159.108 409.287 165.971 401.142 174.612C392.997 183.254 386.804 193.421 382.562 205.112C378.319 216.804 376.198 229.258 376.198 242.475Z"
            fill="#1A1A1A"
          />
          <path
            d="M860.318 293.817C860.318 298.222 860.488 303.56 860.827 309.829C861.167 316.099 861.421 322.453 861.591 328.892C861.761 335.331 862.015 341.346 862.354 346.938C862.694 352.529 862.864 356.85 862.864 359.9H832.32C831.98 351.089 831.726 342.617 831.556 334.483C831.386 326.35 830.962 321.097 830.283 318.725H828.756C822.647 331.603 812.466 342.701 798.212 352.021C783.959 361.34 767.329 366 748.324 366C729.319 366 714.98 363.119 703.272 357.358C691.564 351.597 682.4 344.057 675.783 334.738C669.165 325.418 664.668 314.658 662.292 302.458C659.917 290.258 658.729 277.719 658.729 264.842V125.05H689.273V263.317C689.273 272.806 690.121 282.04 691.818 291.021C693.515 300.001 696.484 308.05 700.727 315.167C704.969 322.283 710.908 327.96 718.544 332.196C726.18 336.432 736.107 338.55 748.324 338.55C759.524 338.55 770.129 336.601 780.141 332.704C790.152 328.807 798.806 322.876 806.103 314.913C813.4 306.949 819.169 296.951 823.411 284.921C827.653 272.89 829.774 258.742 829.774 242.475V125.05H860.318V293.817Z"
            fill="#1A1A1A"
          />
          <path
            d="M944.823 299.917C951.271 312.455 960.774 322.029 973.33 328.637C985.887 335.246 999.123 338.55 1013.04 338.55C1019.49 338.55 1025.93 337.533 1032.38 335.5C1038.83 333.467 1044.6 330.586 1049.69 326.858C1054.78 323.13 1058.94 318.64 1062.16 313.387C1065.39 308.135 1067 302.119 1067 295.342C1067 284.497 1063.52 276.364 1056.56 270.942C1049.61 265.519 1041.04 261.283 1030.85 258.233C1020.67 255.183 1009.47 252.557 997.256 250.354C985.039 248.151 973.84 244.762 963.658 240.187C953.477 235.612 944.908 229.258 937.951 221.125C930.993 212.992 927.515 201.469 927.515 186.558C927.515 175.036 929.89 165.039 934.642 156.567C939.393 148.094 945.586 141.062 953.222 135.471C960.858 129.879 969.428 125.728 978.93 123.017C988.433 120.306 998.105 118.95 1007.95 118.95C1027.29 118.95 1044.01 122.508 1058.09 129.625C1072.17 136.742 1083.12 147.925 1090.92 163.175L1063.43 179.442C1057.67 168.597 1050.45 160.379 1041.8 154.787C1033.15 149.196 1021.86 146.4 1007.95 146.4C1002.52 146.4 996.832 147.247 990.893 148.942C984.954 150.636 979.609 153.008 974.858 156.058C970.106 159.108 966.119 163.005 962.895 167.75C959.671 172.494 958.059 177.917 958.059 184.017C958.059 194.522 961.537 202.317 968.494 207.4C975.452 212.483 984.021 216.465 994.202 219.346C1004.38 222.226 1015.58 224.683 1027.8 226.717C1040.02 228.75 1051.22 232.054 1061.4 236.629C1071.58 241.204 1080.15 247.812 1087.11 256.454C1094.06 265.096 1097.54 277.38 1097.54 293.308C1097.54 305.508 1095.25 316.099 1090.67 325.079C1086.09 334.06 1079.81 341.6 1071.83 347.7C1063.86 353.8 1054.78 358.375 1044.6 361.425C1034.42 364.475 1023.73 366 1012.53 366C992.166 366 973.585 362.103 956.786 354.308C939.987 346.514 927.006 334.483 917.842 318.217L944.823 299.917Z"
            fill="#1A1A1A"
          />
          <path
            d="M1368.87 315.675C1356.99 333.636 1342.32 346.514 1324.84 354.308C1307.36 362.103 1288.1 366 1267.06 366C1249.07 366 1232.78 362.95 1218.19 356.85C1203.6 350.75 1191.04 342.193 1180.52 331.179C1170 320.165 1161.94 307.118 1156.34 292.037C1150.74 276.957 1147.94 260.267 1147.94 241.967C1147.94 223.667 1150.82 208.078 1156.59 193.167C1162.36 178.255 1170.51 165.293 1181.03 154.279C1191.55 143.265 1203.94 134.624 1218.19 128.354C1232.44 122.085 1248.22 118.95 1265.53 118.95C1282.84 118.95 1299.39 122.085 1313.13 128.354C1326.88 134.624 1338.41 142.926 1347.75 153.262C1357.08 163.599 1364.12 175.375 1368.87 188.592C1373.62 201.808 1376 215.194 1376 228.75V250.1H1178.48C1178.48 256.539 1179.76 264.757 1182.3 274.754C1184.85 284.751 1189.51 294.494 1196.3 303.983C1203.09 313.472 1212.17 321.605 1223.54 328.383C1234.9 335.161 1249.58 338.55 1267.57 338.55C1283.18 338.55 1298.28 334.822 1312.88 327.367C1327.47 319.911 1338.67 309.744 1346.47 296.867L1368.87 315.675ZM1345.46 222.65C1345.46 212.144 1343.34 202.317 1339.09 193.167C1334.85 184.017 1329.08 175.968 1321.78 169.021C1314.49 162.074 1305.83 156.567 1295.82 152.5C1285.81 148.433 1275.21 146.4 1264.01 146.4C1247.38 146.4 1233.55 149.789 1222.52 156.567C1211.49 163.344 1202.75 171.139 1196.3 179.95C1189.85 188.761 1185.27 197.318 1182.56 205.621C1179.84 213.924 1178.48 219.6 1178.48 222.65H1345.46Z"
            fill="#1A1A1A"
          />
        </g>
        <defs>
          <clipPath id="clip0_1_78">
            <rect width="1376" height="366" fill="white" />
          </clipPath>
        </defs>
      </svg>